<?xml version="1.0" encoding="UTF-8" standalone="no"?>
<svg
   width="56.40625"
   height="40.000011"
   version="1.1"
   id="svg3"
   sodipodi:docname="NOR_ANSI.svg"
   inkscape:export-filename="nor-mil-with-pins.png"
   inkscape:export-xdpi="600"
   inkscape:export-ydpi="600"
   xmlns:inkscape="http://www.inkscape.org/namespaces/inkscape"
   xmlns:sodipodi="http://sodipodi.sourceforge.net/DTD/sodipodi-0.dtd"
   xmlns="http://www.w3.org/2000/svg"
   xmlns:svg="http://www.w3.org/2000/svg">
  <defs
     id="defs3" />
  <sodipodi:namedview
     id="namedview3"
     pagecolor="#ffffff"
     bordercolor="#000000"
     borderopacity="0.25"
     inkscape:showpageshadow="2"
     inkscape:pageopacity="0.0"
     inkscape:pagecheckerboard="0"
     inkscape:deskcolor="#d1d1d1">
    <inkscape:page
       x="0"
       y="0"
       width="56.40625"
       height="40.000011"
       id="page2"
       margin="0"
       bleed="0" />
  </sodipodi:namedview>
  <path
     fill-rule="evenodd"
     d="M 0,0 2,2.4375 C 2,2.4375 7.65625,9.437549 7.65625,20 7.65625,30.562451 2,37.5625 2,37.5625 L 0,40 h 17.15625 c 2.408076,10e-7 7.689699,0.02451 13.625,-2.40625 5.935301,-2.430764 12.536536,-7.343266 17.6875,-16.875 L 47.15625,20 48.46875,19.28125 C 38.165637,0.21559 21.912824,0 17.15625,0 Z M 5.875,3 H 17.15625 C 21.840423,3 35.4431,2.869793 45.125,20 40.358214,28.429075 34.603719,32.68391 29.40625,34.8125 24.045589,37.007924 19.564325,37.000001 17.15625,37 h -11.25 c 1.873588,-3.108434 4.75,-9.04935 4.75,-17 0,-7.973354 -2.908531,-13.900185 -4.78125,-17 z"
     id="path2" />
  <path
     fill="none"
     stroke="#000000"
     stroke-width="3"
     d="m 54.90625,20 a 4,4 0 1 1 -8,0 4,4 0 1 1 8,0 z"
     style="marker:none"
     id="path3" />
</svg>
