<?xml version="1.0" encoding="UTF-8" standalone="no"?>
<svg
   width="62.15625"
   height="40.000011"
   version="1.1"
   id="svg4"
   sodipodi:docname="XNOR_ANSI.svg"
   inkscape:export-filename="xnor-mil-with-pins.png"
   inkscape:export-xdpi="600"
   inkscape:export-ydpi="600"
   xmlns:inkscape="http://www.inkscape.org/namespaces/inkscape"
   xmlns:sodipodi="http://sodipodi.sourceforge.net/DTD/sodipodi-0.dtd"
   xmlns="http://www.w3.org/2000/svg"
   xmlns:svg="http://www.w3.org/2000/svg">
  <defs
     id="defs4" />
  <sodipodi:namedview
     id="namedview4"
     pagecolor="#ffffff"
     bordercolor="#000000"
     borderopacity="0.25"
     inkscape:showpageshadow="2"
     inkscape:pageopacity="0.0"
     inkscape:pagecheckerboard="0"
     inkscape:deskcolor="#d1d1d1">
    <inkscape:page
       x="0"
       y="0"
       width="62.15625"
       height="40.000011"
       id="page2"
       margin="0"
       bleed="0" />
  </sodipodi:namedview>
  <g
     fill-rule="evenodd"
     id="g3"
     transform="translate(-18.34375,-5)">
    <path
       d="m 24.25,42.000005 c -1.597374,2.6444 -2.25,3 -2.25,3 h -3.65625 l 2,-2.4375 C 20.34375,42.562505 26,35.562451 26,25 26,14.437549 20.34375,7.4375 20.34375,7.4375 L 18.34375,5 H 22 c 0.78125,0.9375 1.421875,1.65625 2.21875,3 C 26.091469,11.099815 29,17.026646 29,25 c 0,7.95065 -2.896697,13.879425 -4.75,17.000005 z"
       id="path2" />
    <path
       d="m 24.09375,5 2,2.4375 c 0,0 5.65625,7.000049 5.65625,17.5625 0,10.562451 -5.65625,17.5625 -5.65625,17.5625 l -2,2.4375 H 41.25 c 2.408076,10e-7 7.689699,0.02451 13.625,-2.40625 5.935301,-2.430764 12.536536,-7.343266 17.6875,-16.875 L 71.25,25 72.5625,24.28125 C 62.259387,5.21559 46.006574,5 41.25,5 Z m 5.875,3 H 41.25 C 45.934173,8 59.53685,7.869793 69.21875,25 64.451964,33.429075 58.697469,37.68391 53.5,39.8125 48.139339,42.007924 43.658075,42.000001 41.25,42 H 30 c 1.873588,-3.108434 4.75,-9.04935 4.75,-17 0,-7.973354 -2.908531,-13.900185 -4.78125,-17 z"
       id="path3" />
  </g>
  <path
     fill="none"
     stroke="#000000"
     stroke-width="3"
     d="m 60.65625,20 a 4,4 0 1 1 -8,0 4,4 0 1 1 8,0 z"
     id="path4" />
</svg>
