<?xml version="1.0" encoding="UTF-8"?>
<svg xmlns="http://www.w3.org/2000/svg" viewBox="0 0 1100 1440" role="img" aria-labelledby="title desc">
  <title id="title">74HC154 definition-backed DIP frame</title>
  <desc id="desc">74HC154 DIP frame. Frame style adapted from https://github.com/Adr-hyng/74LS-Series-Fritzing-Parts/tree/main/Schematic under CC BY-SA 3.0; local Components definition provides all pin truth.</desc>
  <style>.body{fill:#fff;stroke:#000;stroke-width:12.5}.lead{stroke:#787878;stroke-width:9.72;stroke-linecap:round}.pin{fill:none;stroke:none}.name{font:50px "Droid Sans",Arial,sans-serif;fill:#444}.number{font:30px "Droid Sans",Arial,sans-serif;fill:#666}.title{font:44px "Droid Sans",Arial,sans-serif;fill:#111}</style>
  <text class="title" x="550" y="1406" text-anchor="middle">74HC154 · DIP-24</text>
  <rect class="body" x="200" y="30" width="700" height="1290" rx="4"/>
  <path d="M515.0 30a35 35 0 0 0 70 0" fill="none" stroke="#000" stroke-width="12.5"/>
  <line class="lead" x1="5" y1="100" x2="200" y2="100"/>
  <rect class="pin" id="connector0pin" data-pin-number="1" data-pin-name="Y0" data-direction="output" x="5" y="95" width="195" height="10"/>
  <text class="name" x="220" y="117" text-anchor="start">Y0</text>
  <text class="number" x="100" y="85" text-anchor="middle">1</text>
  <line class="lead" x1="5" y1="200" x2="200" y2="200"/>
  <rect class="pin" id="connector1pin" data-pin-number="2" data-pin-name="Y1" data-direction="output" x="5" y="195" width="195" height="10"/>
  <text class="name" x="220" y="217" text-anchor="start">Y1</text>
  <text class="number" x="100" y="185" text-anchor="middle">2</text>
  <line class="lead" x1="5" y1="300" x2="200" y2="300"/>
  <rect class="pin" id="connector2pin" data-pin-number="3" data-pin-name="Y2" data-direction="output" x="5" y="295" width="195" height="10"/>
  <text class="name" x="220" y="317" text-anchor="start">Y2</text>
  <text class="number" x="100" y="285" text-anchor="middle">3</text>
  <line class="lead" x1="5" y1="400" x2="200" y2="400"/>
  <rect class="pin" id="connector3pin" data-pin-number="4" data-pin-name="Y3" data-direction="output" x="5" y="395" width="195" height="10"/>
  <text class="name" x="220" y="417" text-anchor="start">Y3</text>
  <text class="number" x="100" y="385" text-anchor="middle">4</text>
  <line class="lead" x1="5" y1="500" x2="200" y2="500"/>
  <rect class="pin" id="connector4pin" data-pin-number="5" data-pin-name="Y4" data-direction="output" x="5" y="495" width="195" height="10"/>
  <text class="name" x="220" y="517" text-anchor="start">Y4</text>
  <text class="number" x="100" y="485" text-anchor="middle">5</text>
  <line class="lead" x1="5" y1="600" x2="200" y2="600"/>
  <rect class="pin" id="connector5pin" data-pin-number="6" data-pin-name="Y5" data-direction="output" x="5" y="595" width="195" height="10"/>
  <text class="name" x="220" y="617" text-anchor="start">Y5</text>
  <text class="number" x="100" y="585" text-anchor="middle">6</text>
  <line class="lead" x1="5" y1="700" x2="200" y2="700"/>
  <rect class="pin" id="connector6pin" data-pin-number="7" data-pin-name="Y6" data-direction="output" x="5" y="695" width="195" height="10"/>
  <text class="name" x="220" y="717" text-anchor="start">Y6</text>
  <text class="number" x="100" y="685" text-anchor="middle">7</text>
  <line class="lead" x1="5" y1="800" x2="200" y2="800"/>
  <rect class="pin" id="connector7pin" data-pin-number="8" data-pin-name="Y7" data-direction="output" x="5" y="795" width="195" height="10"/>
  <text class="name" x="220" y="817" text-anchor="start">Y7</text>
  <text class="number" x="100" y="785" text-anchor="middle">8</text>
  <line class="lead" x1="5" y1="900" x2="200" y2="900"/>
  <rect class="pin" id="connector8pin" data-pin-number="9" data-pin-name="Y8" data-direction="output" x="5" y="895" width="195" height="10"/>
  <text class="name" x="220" y="917" text-anchor="start">Y8</text>
  <text class="number" x="100" y="885" text-anchor="middle">9</text>
  <line class="lead" x1="5" y1="1000" x2="200" y2="1000"/>
  <rect class="pin" id="connector9pin" data-pin-number="10" data-pin-name="Y9" data-direction="output" x="5" y="995" width="195" height="10"/>
  <text class="name" x="220" y="1017" text-anchor="start">Y9</text>
  <text class="number" x="100" y="985" text-anchor="middle">10</text>
  <line class="lead" x1="5" y1="1100" x2="200" y2="1100"/>
  <rect class="pin" id="connector10pin" data-pin-number="11" data-pin-name="Y10" data-direction="output" x="5" y="1095" width="195" height="10"/>
  <text class="name" x="220" y="1117" text-anchor="start">Y10</text>
  <text class="number" x="100" y="1085" text-anchor="middle">11</text>
  <line class="lead" x1="5" y1="1200" x2="200" y2="1200"/>
  <rect class="pin" id="connector11pin" data-pin-number="12" data-pin-name="GND" data-direction="power" x="5" y="1195" width="195" height="10"/>
  <text class="name" x="220" y="1217" text-anchor="start">GND</text>
  <text class="number" x="100" y="1185" text-anchor="middle">12</text>
  <line class="lead" x1="900" y1="1200" x2="1095" y2="1200"/>
  <rect class="pin" id="connector12pin" data-pin-number="13" data-pin-name="Y11" data-direction="output" x="900" y="1195" width="195" height="10"/>
  <text class="name" x="880" y="1217" text-anchor="end">Y11</text>
  <text class="number" x="1000" y="1185" text-anchor="middle">13</text>
  <line class="lead" x1="900" y1="1100" x2="1095" y2="1100"/>
  <rect class="pin" id="connector13pin" data-pin-number="14" data-pin-name="Y12" data-direction="output" x="900" y="1095" width="195" height="10"/>
  <text class="name" x="880" y="1117" text-anchor="end">Y12</text>
  <text class="number" x="1000" y="1085" text-anchor="middle">14</text>
  <line class="lead" x1="900" y1="1000" x2="1095" y2="1000"/>
  <rect class="pin" id="connector14pin" data-pin-number="15" data-pin-name="Y13" data-direction="output" x="900" y="995" width="195" height="10"/>
  <text class="name" x="880" y="1017" text-anchor="end">Y13</text>
  <text class="number" x="1000" y="985" text-anchor="middle">15</text>
  <line class="lead" x1="900" y1="900" x2="1095" y2="900"/>
  <rect class="pin" id="connector15pin" data-pin-number="16" data-pin-name="Y14" data-direction="output" x="900" y="895" width="195" height="10"/>
  <text class="name" x="880" y="917" text-anchor="end">Y14</text>
  <text class="number" x="1000" y="885" text-anchor="middle">16</text>
  <line class="lead" x1="900" y1="800" x2="1095" y2="800"/>
  <rect class="pin" id="connector16pin" data-pin-number="17" data-pin-name="Y15" data-direction="output" x="900" y="795" width="195" height="10"/>
  <text class="name" x="880" y="817" text-anchor="end">Y15</text>
  <text class="number" x="1000" y="785" text-anchor="middle">17</text>
  <line class="lead" x1="900" y1="700" x2="1095" y2="700"/>
  <rect class="pin" id="connector17pin" data-pin-number="18" data-pin-name="E0" data-direction="input" x="900" y="695" width="195" height="10"/>
  <text class="name" x="880" y="717" text-anchor="end">E0</text>
  <text class="number" x="1000" y="685" text-anchor="middle">18</text>
  <line class="lead" x1="900" y1="600" x2="1095" y2="600"/>
  <rect class="pin" id="connector18pin" data-pin-number="19" data-pin-name="E1" data-direction="input" x="900" y="595" width="195" height="10"/>
  <text class="name" x="880" y="617" text-anchor="end">E1</text>
  <text class="number" x="1000" y="585" text-anchor="middle">19</text>
  <line class="lead" x1="900" y1="500" x2="1095" y2="500"/>
  <rect class="pin" id="connector19pin" data-pin-number="20" data-pin-name="A3" data-direction="input" x="900" y="495" width="195" height="10"/>
  <text class="name" x="880" y="517" text-anchor="end">A3</text>
  <text class="number" x="1000" y="485" text-anchor="middle">20</text>
  <line class="lead" x1="900" y1="400" x2="1095" y2="400"/>
  <rect class="pin" id="connector20pin" data-pin-number="21" data-pin-name="A2" data-direction="input" x="900" y="395" width="195" height="10"/>
  <text class="name" x="880" y="417" text-anchor="end">A2</text>
  <text class="number" x="1000" y="385" text-anchor="middle">21</text>
  <line class="lead" x1="900" y1="300" x2="1095" y2="300"/>
  <rect class="pin" id="connector21pin" data-pin-number="22" data-pin-name="A1" data-direction="input" x="900" y="295" width="195" height="10"/>
  <text class="name" x="880" y="317" text-anchor="end">A1</text>
  <text class="number" x="1000" y="285" text-anchor="middle">22</text>
  <line class="lead" x1="900" y1="200" x2="1095" y2="200"/>
  <rect class="pin" id="connector22pin" data-pin-number="23" data-pin-name="A0" data-direction="input" x="900" y="195" width="195" height="10"/>
  <text class="name" x="880" y="217" text-anchor="end">A0</text>
  <text class="number" x="1000" y="185" text-anchor="middle">23</text>
  <line class="lead" x1="900" y1="100" x2="1095" y2="100"/>
  <rect class="pin" id="connector23pin" data-pin-number="24" data-pin-name="VCC" data-direction="power" x="900" y="95" width="195" height="10"/>
  <text class="name" x="880" y="117" text-anchor="end">VCC</text>
  <text class="number" x="1000" y="85" text-anchor="middle">24</text>
</svg>
