<?xml version="1.0" encoding="UTF-8"?>
<svg xmlns="http://www.w3.org/2000/svg" viewBox="0 0 1100 1040" role="img" aria-labelledby="title desc">
  <title id="title">74HC147 definition-backed DIP frame</title>
  <desc id="desc">74HC147 DIP pin frame. Frame style adapted from https://github.com/Adr-hyng/74LS-Series-Fritzing-Parts/tree/main/Schematic under CC BY-SA 3.0; local Components definition provides all pin truth.</desc>
  <style>.body{fill:#fff;stroke:#000;stroke-width:12.5}.lead{stroke:#787878;stroke-width:9.72;stroke-linecap:round}.pin{fill:none;stroke:none}.name{font:50px "Droid Sans",Arial,sans-serif;fill:#444}.number{font:30px "Droid Sans",Arial,sans-serif;fill:#666}.title{font:44px "Droid Sans",Arial,sans-serif;fill:#111}</style>
  <text class="title" x="550" y="1006" text-anchor="middle">74HC147 · DIP-16</text>
  <rect class="body" x="200" y="30" width="700" height="890" rx="4"/>
  <path d="M515.0 30a35 35 0 0 0 70 0" fill="none" stroke="#000" stroke-width="12.5"/>
  <line class="lead" x1="5" y1="100" x2="200" y2="100"/>
  <rect class="pin" id="connector0pin" data-pin-number="1" data-pin-name="/I4" data-component-pin="pin-1" data-component-selector="@1" data-component-port="/I4" data-direction="input" x="5" y="95" width="195" height="10"/>
  <text class="name" x="220" y="117" text-anchor="start">/I4</text>
  <text class="number" x="100" y="85" text-anchor="middle">1</text>
  <line class="lead" x1="5" y1="200" x2="200" y2="200"/>
  <rect class="pin" id="connector1pin" data-pin-number="2" data-pin-name="/I5" data-component-pin="pin-2" data-component-selector="@2" data-component-port="/I5" data-direction="input" x="5" y="195" width="195" height="10"/>
  <text class="name" x="220" y="217" text-anchor="start">/I5</text>
  <text class="number" x="100" y="185" text-anchor="middle">2</text>
  <line class="lead" x1="5" y1="300" x2="200" y2="300"/>
  <rect class="pin" id="connector2pin" data-pin-number="3" data-pin-name="/I6" data-component-pin="pin-3" data-component-selector="@3" data-component-port="/I6" data-direction="input" x="5" y="295" width="195" height="10"/>
  <text class="name" x="220" y="317" text-anchor="start">/I6</text>
  <text class="number" x="100" y="285" text-anchor="middle">3</text>
  <line class="lead" x1="5" y1="400" x2="200" y2="400"/>
  <rect class="pin" id="connector3pin" data-pin-number="4" data-pin-name="/I7" data-component-pin="pin-4" data-component-selector="@4" data-component-port="/I7" data-direction="input" x="5" y="395" width="195" height="10"/>
  <text class="name" x="220" y="417" text-anchor="start">/I7</text>
  <text class="number" x="100" y="385" text-anchor="middle">4</text>
  <line class="lead" x1="5" y1="500" x2="200" y2="500"/>
  <rect class="pin" id="connector4pin" data-pin-number="5" data-pin-name="/I8" data-component-pin="pin-5" data-component-selector="@5" data-component-port="/I8" data-direction="input" x="5" y="495" width="195" height="10"/>
  <text class="name" x="220" y="517" text-anchor="start">/I8</text>
  <text class="number" x="100" y="485" text-anchor="middle">5</text>
  <line class="lead" x1="5" y1="600" x2="200" y2="600"/>
  <rect class="pin" id="connector5pin" data-pin-number="6" data-pin-name="/Y2" data-component-pin="pin-6" data-component-selector="@6" data-component-port="/Y2" data-direction="output" x="5" y="595" width="195" height="10"/>
  <text class="name" x="220" y="617" text-anchor="start">/Y2</text>
  <text class="number" x="100" y="585" text-anchor="middle">6</text>
  <line class="lead" x1="5" y1="700" x2="200" y2="700"/>
  <rect class="pin" id="connector6pin" data-pin-number="7" data-pin-name="/Y1" data-component-pin="pin-7" data-component-selector="@7" data-component-port="/Y1" data-direction="output" x="5" y="695" width="195" height="10"/>
  <text class="name" x="220" y="717" text-anchor="start">/Y1</text>
  <text class="number" x="100" y="685" text-anchor="middle">7</text>
  <line class="lead" x1="5" y1="800" x2="200" y2="800"/>
  <rect class="pin" id="connector7pin" data-pin-number="8" data-pin-name="GND" data-component-pin="pin-8" data-component-selector="@8" data-component-port="GND" data-direction="power" x="5" y="795" width="195" height="10"/>
  <text class="name" x="220" y="817" text-anchor="start">GND</text>
  <text class="number" x="100" y="785" text-anchor="middle">8</text>
  <line class="lead" x1="900" y1="800" x2="1095" y2="800"/>
  <rect class="pin" id="connector8pin" data-pin-number="9" data-pin-name="/I0" data-component-pin="pin-9" data-component-selector="@9" data-component-port="/I0" data-direction="input" x="900" y="795" width="195" height="10"/>
  <text class="name" x="880" y="817" text-anchor="end">/I0</text>
  <text class="number" x="1000" y="785" text-anchor="middle">9</text>
  <line class="lead" x1="900" y1="700" x2="1095" y2="700"/>
  <rect class="pin" id="connector9pin" data-pin-number="10" data-pin-name="/I9" data-component-pin="pin-10" data-component-selector="@10" data-component-port="/I9" data-direction="input" x="900" y="695" width="195" height="10"/>
  <text class="name" x="880" y="717" text-anchor="end">/I9</text>
  <text class="number" x="1000" y="685" text-anchor="middle">10</text>
  <line class="lead" x1="900" y1="600" x2="1095" y2="600"/>
  <rect class="pin" id="connector10pin" data-pin-number="11" data-pin-name="/I1" data-component-pin="pin-11" data-component-selector="@11" data-component-port="/I1" data-direction="input" x="900" y="595" width="195" height="10"/>
  <text class="name" x="880" y="617" text-anchor="end">/I1</text>
  <text class="number" x="1000" y="585" text-anchor="middle">11</text>
  <line class="lead" x1="900" y1="500" x2="1095" y2="500"/>
  <rect class="pin" id="connector11pin" data-pin-number="12" data-pin-name="/I2" data-component-pin="pin-12" data-component-selector="@12" data-component-port="/I2" data-direction="input" x="900" y="495" width="195" height="10"/>
  <text class="name" x="880" y="517" text-anchor="end">/I2</text>
  <text class="number" x="1000" y="485" text-anchor="middle">12</text>
  <line class="lead" x1="900" y1="400" x2="1095" y2="400"/>
  <rect class="pin" id="connector12pin" data-pin-number="13" data-pin-name="/I3" data-component-pin="pin-13" data-component-selector="@13" data-component-port="/I3" data-direction="input" x="900" y="395" width="195" height="10"/>
  <text class="name" x="880" y="417" text-anchor="end">/I3</text>
  <text class="number" x="1000" y="385" text-anchor="middle">13</text>
  <line class="lead" x1="900" y1="300" x2="1095" y2="300"/>
  <rect class="pin" id="connector13pin" data-pin-number="14" data-pin-name="/Y3" data-component-pin="pin-14" data-component-selector="@14" data-component-port="/Y3" data-direction="output" x="900" y="295" width="195" height="10"/>
  <text class="name" x="880" y="317" text-anchor="end">/Y3</text>
  <text class="number" x="1000" y="285" text-anchor="middle">14</text>
  <line class="lead" x1="900" y1="200" x2="1095" y2="200"/>
  <rect class="pin" id="connector14pin" data-pin-number="15" data-pin-name="NC" data-component-pin="pin-15" data-component-selector="@15" data-component-port="NC" data-direction="nc" x="900" y="195" width="195" height="10"/>
  <text class="name" x="880" y="217" text-anchor="end">NC</text>
  <text class="number" x="1000" y="185" text-anchor="middle">15</text>
  <line class="lead" x1="900" y1="100" x2="1095" y2="100"/>
  <rect class="pin" id="connector15pin" data-pin-number="16" data-pin-name="VCC" data-component-pin="pin-16" data-component-selector="@16" data-component-port="VCC" data-direction="power" x="900" y="95" width="195" height="10"/>
  <text class="name" x="880" y="117" text-anchor="end">VCC</text>
  <text class="number" x="1000" y="85" text-anchor="middle">16</text>
</svg>
