<?xml version="1.0" encoding="UTF-8" standalone="no"?>
<svg
   width="90"
   height="40.000011"
   version="1.1"
   id="svg3"
   sodipodi:docname="NOR_ANSI.svg"
   xmlns:inkscape="http://www.inkscape.org/namespaces/inkscape"
   xmlns:sodipodi="http://sodipodi.sourceforge.net/DTD/sodipodi-0.dtd"
   xmlns="http://www.w3.org/2000/svg"
   xmlns:svg="http://www.w3.org/2000/svg">
  <defs
     id="defs3" />
  <sodipodi:namedview
     id="namedview3"
     pagecolor="#ffffff"
     bordercolor="#000000"
     borderopacity="0.25"
     inkscape:showpageshadow="2"
     inkscape:pageopacity="0.0"
     inkscape:pagecheckerboard="0"
     inkscape:deskcolor="#d1d1d1">
    <inkscape:page
       x="0"
       y="0"
       width="90"
       height="40.000011"
       id="page2"
       margin="0"
       bleed="0" />
  </sodipodi:namedview>
  <path
     fill="none"
     stroke="#000000"
     stroke-width="2"
     d="M 74,20 H 90 M 26,10 H 0 M 27,30 H 0"
     id="path1" />
  <path
     fill-rule="evenodd"
     d="m 19.09375,0 2,2.4375 c 0,0 5.65625,7.000049 5.65625,17.5625 0,10.562451 -5.65625,17.5625 -5.65625,17.5625 l -2,2.4375 H 36.25 c 2.408076,10e-7 7.689699,0.02451 13.625,-2.40625 5.935301,-2.430764 12.536536,-7.343266 17.6875,-16.875 L 66.25,20 67.5625,19.28125 C 57.259387,0.21559 41.006574,0 36.25,0 Z m 5.875,3 H 36.25 C 40.934173,3 54.53685,2.869793 64.21875,20 59.451964,28.429075 53.697469,32.68391 48.5,34.8125 43.139339,37.007924 38.658075,37.000001 36.25,37 H 25 c 1.873588,-3.108434 4.75,-9.04935 4.75,-17 0,-7.973354 -2.908531,-13.900185 -4.78125,-17 z"
     id="path2" />
  <path
     fill="none"
     stroke="#000000"
     stroke-width="3"
     d="m 74,20 a 4,4 0 1 1 -8,0 4,4 0 1 1 8,0 z"
     style="marker:none"
     id="path3" />
</svg>
