<?xml version="1.0" encoding="UTF-8" standalone="no"?>
<svg
   width="90"
   height="40.000011"
   version="1.1"
   id="svg3"
   sodipodi:docname="XOR_ANSI.svg"
   xmlns:inkscape="http://www.inkscape.org/namespaces/inkscape"
   xmlns:sodipodi="http://sodipodi.sourceforge.net/DTD/sodipodi-0.dtd"
   xmlns="http://www.w3.org/2000/svg"
   xmlns:svg="http://www.w3.org/2000/svg">
  <defs
     id="defs3" />
  <sodipodi:namedview
     id="namedview3"
     pagecolor="#ffffff"
     bordercolor="#000000"
     borderopacity="0.25"
     inkscape:showpageshadow="2"
     inkscape:pageopacity="0.0"
     inkscape:pagecheckerboard="0"
     inkscape:deskcolor="#d1d1d1">
    <inkscape:page
       x="0"
       y="0"
       width="90"
       height="40.000011"
       id="page2"
       margin="0"
       bleed="0" />
  </sodipodi:namedview>
  <path
     fill="none"
     stroke="#000000"
     stroke-width="2"
     d="M 65,20 H 90 M 25.38572,10 H 0 M 26.3621,30 H 0"
     id="path1" />
  <g
     fill-rule="evenodd"
     id="g3"
     transform="translate(-5,-5)">
    <path
       d="m 24.09375,5 2,2.4375 c 0,0 5.65625,7.00005 5.65625,17.5625 0,10.56245 -5.65625,17.5625 -5.65625,17.5625 l -2,2.4375 H 41.25 c 2.40808,0 7.6897,0.02451 13.625,-2.40625 5.9353,-2.43076 12.53654,-7.34327 17.6875,-16.875 L 71.25,25 72.5625,24.28125 C 62.25939,5.21559 46.00657,5 41.25,5 Z m 5.875,3 H 41.25 C 45.93417,8 59.53685,7.8698 69.21875,25 64.45196,33.42907 58.69747,37.68391 53.5,39.8125 48.13934,42.00792 43.65808,42 41.25,42 H 30 c 1.87359,-3.10843 4.75,-9.04935 4.75,-17 0,-7.97335 -2.90853,-13.90019 -4.78125,-17 z"
       id="path3" />
  </g>
</svg>
